<svg xmlns="http://www.w3.org/2000/svg" width="900" height="560" viewBox="0 0 900 560" role="img" aria-label="Protist Cell Diagram">
  <defs>
    <filter id="shadow" x="-20%" y="-20%" width="140%" height="140%"><feDropShadow dx="0" dy="8" stdDeviation="8" flood-color="#0f172a" flood-opacity="0.22"/></filter>
    <radialGradient id="glow" cx="35%" cy="25%"><stop offset="0" stop-color="#ffffff" stop-opacity="0.85"/><stop offset="1" stop-color="#ffffff" stop-opacity="0"/></radialGradient>
  </defs>
  <rect width="900" height="560" rx="32" fill="#ecfdf5"/>
  <text x="40" y="58" font-size="34" font-weight="800" fill="#0f172a" font-family="Arial">Protist Cell Diagram</text>
  <text x="42" y="90" font-size="18" fill="#334155" font-family="Arial">Reference photo/diagram for the Protist Cell class</text>
  
  <path d="M430 90 C540 110 610 230 560 360 C510 500 345 490 300 360 C250 220 310 90 430 90" fill="#86efac" filter="url(#shadow)"/>
  <path d="M420 115 C510 150 555 245 520 350 C485 450 360 440 330 348 C285 230 330 125 420 115" fill="#bbf7d0"/>
  <circle cx="430" cy="275" r="54" fill="#f0abfc"/><circle cx="432" cy="275" r="22" fill="#7c3aed"/>
  <ellipse cx="382" cy="180" rx="30" ry="18" fill="#22c55e"/><ellipse cx="485" cy="370" rx="36" ry="18" fill="#22c55e"/>
  <ellipse cx="365" cy="340" rx="35" ry="22" fill="#67e8f9"/><ellipse cx="485" cy="205" rx="28" ry="20" fill="#f59e0b"/>
  <path d="M330 420 C230 470 205 385 250 330" stroke="#15803d" stroke-width="9" fill="none"/>
  <g fill="#ef4444"><ellipse cx="365" cy="240" rx="22" ry="10"/><ellipse cx="500" cy="305" rx="22" ry="10"/></g>
  <g fill="#111827"><circle cx="400" cy="215" r="4"/><circle cx="465" cy="330" r="4"/></g>

  <text x="245" y="140" font-size="15" fill="#0f172a" font-family="Arial">cytoplasm</text><text x="555" y="135" font-size="15" fill="#0f172a" font-family="Arial">plasma membrane</text><text x="328" y="282" font-size="15" fill="#0f172a" font-family="Arial">nucleus</text><text x="520" y="210" font-size="15" fill="#0f172a" font-family="Arial">food vacuole</text><text x="210" y="368" font-size="15" fill="#0f172a" font-family="Arial">flagellum</text><text x="548" y="330" font-size="15" fill="#0f172a" font-family="Arial">rough ER</text><text x="520" y="390" font-size="15" fill="#0f172a" font-family="Arial">chloroplast</text><text x="224" y="455" font-size="15" fill="#0f172a" font-family="Arial">contractile vacuole</text>
</svg>
