<svg xmlns="http://www.w3.org/2000/svg" width="900" height="560" viewBox="0 0 900 560" role="img" aria-label="Red Blood Cell Photo">
  <defs>
    <filter id="shadow" x="-20%" y="-20%" width="140%" height="140%"><feDropShadow dx="0" dy="8" stdDeviation="8" flood-color="#0f172a" flood-opacity="0.22"/></filter>
    <radialGradient id="glow" cx="35%" cy="25%"><stop offset="0" stop-color="#ffffff" stop-opacity="0.85"/><stop offset="1" stop-color="#ffffff" stop-opacity="0"/></radialGradient>
  </defs>
  <rect width="900" height="560" rx="32" fill="#450a0a"/>
  <text x="40" y="58" font-size="34" font-weight="800" fill="#0f172a" font-family="Arial">Red Blood Cell Photo</text>
  <text x="42" y="90" font-size="18" fill="#334155" font-family="Arial">Reference photo for the Red Blood Cell class</text>
  
  <defs><radialGradient id="rbc" cx="35%" cy="25%"><stop offset="0" stop-color="#fecaca"/><stop offset="0.48" stop-color="#ef4444"/><stop offset="1" stop-color="#991b1b"/></radialGradient></defs>
  <path d="M0 0 h900 v560 H0z" fill="#7f1d1d"/>
  <path d="M60 420 C210 280 330 235 500 260 C680 285 770 140 900 95 V560 H0z" fill="#991b1b" opacity="0.45"/>
  <g filter="url(#shadow)"><ellipse cx="190" cy="255" rx="120" ry="55" fill="url(#rbc)" transform="rotate(-18 190 255)"/><ellipse cx="405" cy="345" rx="115" ry="60" fill="url(#rbc)" transform="rotate(14 405 345)"/><ellipse cx="635" cy="235" rx="80" ry="58" fill="url(#rbc)"/><ellipse cx="720" cy="410" rx="110" ry="48" fill="url(#rbc)" transform="rotate(20 720 410)"/><ellipse cx="760" cy="125" rx="55" ry="40" fill="url(#rbc)"/></g>
  <ellipse cx="190" cy="255" rx="55" ry="20" fill="#7f1d1d" opacity="0.42" transform="rotate(-18 190 255)"/><ellipse cx="405" cy="345" rx="50" ry="22" fill="#7f1d1d" opacity="0.38" transform="rotate(14 405 345)"/><ellipse cx="635" cy="235" rx="35" ry="24" fill="#7f1d1d" opacity="0.35"/>

  <text x="80" y="80" font-size="15" fill="#0f172a" font-family="Arial">biconcave red blood cells</text><text x="90" y="515" font-size="15" fill="#0f172a" font-family="Arial">hemoglobin-rich cytoplasm</text><text x="580" y="510" font-size="15" fill="#0f172a" font-family="Arial">oxygen transport</text><text x="575" y="80" font-size="15" fill="#0f172a" font-family="Arial">no nucleus in mature human RBC</text>
</svg>
