<svg xmlns="http://www.w3.org/2000/svg" width="900" height="560" viewBox="0 0 900 560" role="img" aria-label="Neuron Diagram">
  <defs>
    <filter id="shadow" x="-20%" y="-20%" width="140%" height="140%"><feDropShadow dx="0" dy="8" stdDeviation="8" flood-color="#0f172a" flood-opacity="0.22"/></filter>
    <radialGradient id="glow" cx="35%" cy="25%"><stop offset="0" stop-color="#ffffff" stop-opacity="0.85"/><stop offset="1" stop-color="#ffffff" stop-opacity="0"/></radialGradient>
  </defs>
  <rect width="900" height="560" rx="32" fill="#eff6ff"/>
  <text x="40" y="58" font-size="34" font-weight="800" fill="#0f172a" font-family="Arial">Neuron Diagram</text>
  <text x="42" y="90" font-size="18" fill="#334155" font-family="Arial">Reference photo/diagram for the Neuron class</text>
  
  <circle cx="260" cy="280" r="82" fill="#93c5fd" filter="url(#shadow)"/><circle cx="260" cy="280" r="38" fill="#818cf8"/>
  <g stroke="#2563eb" stroke-linecap="round" fill="none"><path d="M210 240 C130 190 115 110 65 80" stroke-width="14"/><path d="M205 310 C120 340 120 430 60 480" stroke-width="14"/><path d="M255 198 C245 120 300 95 310 40" stroke-width="12"/><path d="M310 292 C380 295 455 292 535 288" stroke-width="18"/></g>
  <g fill="#fde68a"><ellipse cx="410" cy="288" rx="42" ry="25"/><ellipse cx="505" cy="288" rx="42" ry="25"/><ellipse cx="600" cy="288" rx="42" ry="25"/><ellipse cx="695" cy="288" rx="42" ry="25"/></g>
  <path d="M535 288 C610 285 690 292 760 286 C795 284 822 260 850 230" stroke="#1d4ed8" stroke-width="15" fill="none" stroke-linecap="round"/>
  <path d="M760 286 C805 310 825 350 860 385" stroke="#1d4ed8" stroke-width="9" fill="none" stroke-linecap="round"/>
  <circle cx="814" cy="164" r="54" fill="#7f1d1d"/><circle cx="814" cy="164" r="28" fill="#fef3c7"/>

  <text x="135" y="170" font-size="15" fill="#0f172a" font-family="Arial">dendrites</text><text x="202" y="385" font-size="15" fill="#0f172a" font-family="Arial">cell body</text><text x="275" y="280" font-size="15" fill="#0f172a" font-family="Arial">nucleus</text><text x="470" y="250" font-size="15" fill="#0f172a" font-family="Arial">axon</text><text x="566" y="345" font-size="15" fill="#0f172a" font-family="Arial">myelin sheath</text><text x="752" y="215" font-size="15" fill="#0f172a" font-family="Arial">axon terminal</text><text x="730" y="115" font-size="15" fill="#0f172a" font-family="Arial">synapse</text><text x="92" y="480" font-size="15" fill="#0f172a" font-family="Arial">dendrite branches</text>
</svg>
