<svg xmlns="http://www.w3.org/2000/svg" width="900" height="560" viewBox="0 0 900 560" role="img" aria-label="Bacterial Cell Diagram">
  <defs>
    <filter id="shadow" x="-20%" y="-20%" width="140%" height="140%"><feDropShadow dx="0" dy="8" stdDeviation="8" flood-color="#0f172a" flood-opacity="0.22"/></filter>
    <radialGradient id="glow" cx="35%" cy="25%"><stop offset="0" stop-color="#ffffff" stop-opacity="0.85"/><stop offset="1" stop-color="#ffffff" stop-opacity="0"/></radialGradient>
  </defs>
  <rect width="900" height="560" rx="32" fill="#fefce8"/>
  <text x="40" y="58" font-size="34" font-weight="800" fill="#0f172a" font-family="Arial">Bacterial Cell Diagram</text>
  <text x="42" y="90" font-size="18" fill="#334155" font-family="Arial">Reference photo/diagram for the Bacterial Cell class</text>
  
  <ellipse cx="390" cy="290" rx="270" ry="128" fill="#84cc16" filter="url(#shadow)"/>
  <ellipse cx="390" cy="290" rx="235" ry="96" fill="#bef264" opacity="0.86"/>
  <path d="M260 280 q120 -90 250 0 q-80 90 -250 0" stroke="#a855f7" stroke-width="16" fill="none"/>
  <g fill="#111827"><circle cx="310" cy="322" r="5"/><circle cx="395" cy="230" r="5"/><circle cx="510" cy="315" r="5"/><circle cx="560" cy="270" r="5"/></g>
  <path d="M635 292 C760 330 745 450 830 430" stroke="#334155" stroke-width="9" fill="none"/>
  <g stroke="#365314" stroke-width="5"><path d="M160 230 l-50 -45"/><path d="M172 330 l-58 34"/><path d="M300 165 l-20 -65"/><path d="M540 184 l45 -55"/><path d="M610 380 l65 45"/></g>
  <circle cx="475" cy="250" r="28" fill="none" stroke="#7c3aed" stroke-width="7"/>

  <text x="130" y="180" font-size="15" fill="#0f172a" font-family="Arial">pilus</text><text x="235" y="150" font-size="15" fill="#0f172a" font-family="Arial">capsule</text><text x="570" y="175" font-size="15" fill="#0f172a" font-family="Arial">cell wall</text><text x="610" y="225" font-size="15" fill="#0f172a" font-family="Arial">plasma membrane</text><text x="330" y="285" font-size="15" fill="#0f172a" font-family="Arial">nucleoid DNA</text><text x="450" y="240" font-size="15" fill="#0f172a" font-family="Arial">plasmid</text><text x="285" y="350" font-size="15" fill="#0f172a" font-family="Arial">ribosomes</text><text x="690" y="410" font-size="15" fill="#0f172a" font-family="Arial">flagellum</text><text x="565" y="330" font-size="15" fill="#0f172a" font-family="Arial">cytoplasm</text>
</svg>
