<svg xmlns="http://www.w3.org/2000/svg" width="900" height="560" viewBox="0 0 900 560" role="img" aria-label="Fungal Cell Diagram">
  <defs>
    <filter id="shadow" x="-20%" y="-20%" width="140%" height="140%"><feDropShadow dx="0" dy="8" stdDeviation="8" flood-color="#0f172a" flood-opacity="0.22"/></filter>
    <radialGradient id="glow" cx="35%" cy="25%"><stop offset="0" stop-color="#ffffff" stop-opacity="0.85"/><stop offset="1" stop-color="#ffffff" stop-opacity="0"/></radialGradient>
  </defs>
  <rect width="900" height="560" rx="32" fill="#fff7ed"/>
  <text x="40" y="58" font-size="34" font-weight="800" fill="#0f172a" font-family="Arial">Fungal Cell Diagram</text>
  <text x="42" y="90" font-size="18" fill="#334155" font-family="Arial">Reference photo/diagram for the Fungal Cell class</text>
  
  <ellipse cx="420" cy="280" rx="165" ry="220" fill="#d6d3d1" filter="url(#shadow)"/>
  <ellipse cx="420" cy="280" rx="135" ry="185" fill="#fef3c7"/>
  <circle cx="430" cy="300" r="58" fill="#f9a8d4"/><circle cx="448" cy="292" r="20" fill="#be185d"/>
  <ellipse cx="355" cy="210" rx="36" ry="24" fill="#bae6fd"/><ellipse cx="470" cy="400" rx="44" ry="28" fill="#bae6fd"/>
  <ellipse cx="345" cy="355" rx="36" ry="16" fill="#ef4444" transform="rotate(28 345 355)"/>
  <path d="M500 245 q55 -42 85 0 q-35 40 -86 22" stroke="#a855f7" stroke-width="10" fill="none"/>
  <g fill="#111827"><circle cx="350" cy="268" r="4"/><circle cx="485" cy="335" r="4"/><circle cx="405" cy="430" r="4"/></g>
  <circle cx="390" cy="80" r="38" fill="#fde68a"/><path d="M390 118 C385 150 412 145 410 184" stroke="#a16207" stroke-width="16" fill="none"/>

  <text x="260" y="108" font-size="15" fill="#0f172a" font-family="Arial">bud</text><text x="598" y="170" font-size="15" fill="#0f172a" font-family="Arial">vacuole</text><text x="590" y="232" font-size="15" fill="#0f172a" font-family="Arial">ribosome</text><text x="590" y="285" font-size="15" fill="#0f172a" font-family="Arial">Golgi apparatus</text><text x="585" y="340" font-size="15" fill="#0f172a" font-family="Arial">endoplasmic reticulum</text><text x="590" y="395" font-size="15" fill="#0f172a" font-family="Arial">nucleus</text><text x="210" y="260" font-size="15" fill="#0f172a" font-family="Arial">cytoplasm</text><text x="205" y="330" font-size="15" fill="#0f172a" font-family="Arial">mitochondrion</text><text x="220" y="420" font-size="15" fill="#0f172a" font-family="Arial">cell wall</text>
</svg>
