<svg xmlns="http://www.w3.org/2000/svg" width="900" height="560" viewBox="0 0 900 560" role="img" aria-label="White Blood Cell Photo">
  <defs>
    <filter id="shadow" x="-20%" y="-20%" width="140%" height="140%"><feDropShadow dx="0" dy="8" stdDeviation="8" flood-color="#0f172a" flood-opacity="0.22"/></filter>
    <radialGradient id="glow" cx="35%" cy="25%"><stop offset="0" stop-color="#ffffff" stop-opacity="0.85"/><stop offset="1" stop-color="#ffffff" stop-opacity="0"/></radialGradient>
  </defs>
  <rect width="900" height="560" rx="32" fill="#2e1065"/>
  <text x="40" y="58" font-size="34" font-weight="800" fill="#0f172a" font-family="Arial">White Blood Cell Photo</text>
  <text x="42" y="90" font-size="18" fill="#334155" font-family="Arial">Reference photo for the White Blood Cell class</text>
  
  <rect width="900" height="560" fill="#1e1b4b"/>
  <circle cx="440" cy="285" r="170" fill="#f5f5f4" filter="url(#shadow)"/>
  <circle cx="440" cy="285" r="132" fill="#e7e5e4"/>
  <g fill="#7c3aed"><ellipse cx="380" cy="265" rx="62" ry="48"/><ellipse cx="455" cy="310" rx="70" ry="48"/><ellipse cx="505" cy="245" rx="58" ry="45"/></g>
  <g fill="#f97316"><circle cx="330" cy="210" r="10"/><circle cx="535" cy="360" r="11"/><circle cx="365" cy="390" r="8"/><circle cx="555" cy="205" r="8"/><circle cx="455" cy="180" r="7"/></g>
  <g stroke="#fafaf9" stroke-width="5" opacity="0.9"><path d="M285 165 q-35 -45 -70 -18"/><path d="M590 185 q55 -30 95 8"/><path d="M600 410 q35 45 80 20"/><path d="M290 410 q-60 35 -102 -10"/></g>

  <text x="108" y="95" font-size="15" fill="#0f172a" font-family="Arial">white blood cell</text><text x="520" y="260" font-size="15" fill="#0f172a" font-family="Arial">lobed nucleus</text><text x="545" y="370" font-size="15" fill="#0f172a" font-family="Arial">granules / lysosomes</text><text x="165" y="435" font-size="15" fill="#0f172a" font-family="Arial">surface receptors</text><text x="305" y="160" font-size="15" fill="#0f172a" font-family="Arial">cell membrane</text><text x="548" y="455" font-size="15" fill="#0f172a" font-family="Arial">immune defense</text>
</svg>
